<svg id="Layer_1" data-name="Layer 1" xmlns="http://www.w3.org/2000/svg" viewBox="0 0 210.09 31.21"><defs><style>.cls-1{fill:#231f20;}</style></defs><path class="cls-1" d="M259.32,479H247.7V448.13h11.62Z" transform="translate(-247.7 -448.13)"/><path class="cls-1" d="M274.68,459.74V479H263.06V448.13h0A11.61,11.61,0,0,1,274.68,459.74Z" transform="translate(-247.7 -448.13)"/><path class="cls-1" d="M290.17,459.74V479H278.55V448.13h0A11.61,11.61,0,0,1,290.17,459.74Z" transform="translate(-247.7 -448.13)"/><path class="cls-1" d="M323.58,458.51a7.5,7.5,0,0,1,1.72,5.18v14.85a.39.39,0,0,1-.44.44h-.44a.39.39,0,0,1-.45-.44V463.86a6.43,6.43,0,0,0-1.43-4.41,4.73,4.73,0,0,0-3.72-1.63,5,5,0,0,0-3.92,1.59,6.21,6.21,0,0,0-1.46,4.36v14.77a.39.39,0,0,1-.44.44h-.44a.39.39,0,0,1-.44-.44V463.86a6.52,6.52,0,0,0-1.41-4.41,4.69,4.69,0,0,0-3.7-1.63,5.11,5.11,0,0,0-4,1.59,6.21,6.21,0,0,0-1.46,4.36v14.77a.39.39,0,0,1-.44.44h-.44a.39.39,0,0,1-.44-.44V457.07a.39.39,0,0,1,.44-.44h.44a.39.39,0,0,1,.44.44v2.38c0,.09,0,.14.07.16a.16.16,0,0,0,.15-.07,5.61,5.61,0,0,1,2.23-2.2,6.74,6.74,0,0,1,3.24-.75,5.71,5.71,0,0,1,5.64,3.88c0,.09.06.13.09.13s.06,0,.09-.13a5.87,5.87,0,0,1,2.31-2.89,6.73,6.73,0,0,1,3.68-1A5.76,5.76,0,0,1,323.58,458.51Z" transform="translate(-247.7 -448.13)"/><path class="cls-1" d="M360.62,477.59a4.87,4.87,0,0,1-1.87-3.9v-.44a.39.39,0,0,1,.44-.44h.4a.39.39,0,0,1,.44.44v.4a3.9,3.9,0,0,0,1.52,3.08,5.87,5.87,0,0,0,3.94,1.28,5.53,5.53,0,0,0,3.84-1.3,4.26,4.26,0,0,0,1.45-3.33A3.59,3.59,0,0,0,370,471a5.37,5.37,0,0,0-1.8-1.41c-.71-.33-1.75-.75-3.13-1.25a25.69,25.69,0,0,1-3.33-1.35,5.75,5.75,0,0,1-2.09-1.76,4.7,4.7,0,0,1-.84-2.89,5.12,5.12,0,0,1,1.81-4.1,7.11,7.11,0,0,1,4.76-1.54,7,7,0,0,1,4.76,1.57,5.08,5.08,0,0,1,1.8,4v.13a.38.38,0,0,1-.44.44h-.35a.39.39,0,0,1-.44-.44v-.13a4,4,0,0,0-1.48-3.15,5.79,5.79,0,0,0-3.9-1.26,5.67,5.67,0,0,0-3.79,1.21,4,4,0,0,0-1.41,3.2,3.5,3.5,0,0,0,.68,2.2,5.25,5.25,0,0,0,1.77,1.44,23.89,23.89,0,0,0,2.88,1.16q2.25.84,3.51,1.44a6,6,0,0,1,2.18,1.76,4.71,4.71,0,0,1,.93,3,5.39,5.39,0,0,1-1.81,4.21,7,7,0,0,1-4.81,1.61A7.33,7.33,0,0,1,360.62,477.59Z" transform="translate(-247.7 -448.13)"/><path class="cls-1" d="M388.24,457.91h-4.59c-.12,0-.17.06-.17.18v15.29a4.71,4.71,0,0,0,1,3.42,4.27,4.27,0,0,0,3.08.95h.71a.39.39,0,0,1,.44.44v.35a.39.39,0,0,1-.44.44h-.84a5.75,5.75,0,0,1-3.9-1.17q-1.35-1.17-1.35-4.29V458.09c0-.12-.06-.18-.17-.18h-2.25a.39.39,0,0,1-.44-.44v-.31a.39.39,0,0,1,.44-.44H382a.15.15,0,0,0,.17-.17v-4.76a.39.39,0,0,1,.44-.45H383a.39.39,0,0,1,.44.45v4.76a.15.15,0,0,0,.17.17h4.59a.39.39,0,0,1,.44.44v.31A.39.39,0,0,1,388.24,457.91Z" transform="translate(-247.7 -448.13)"/><path class="cls-1" d="M409.13,458.51a8,8,0,0,1,1.67,5.35v14.68a.39.39,0,0,1-.44.44h-.44a.39.39,0,0,1-.44-.44v-2.12a.14.14,0,0,0-.09-.15c-.06,0-.1,0-.13.11a6.13,6.13,0,0,1-2.64,2.2,9,9,0,0,1-3.71.75,7.11,7.11,0,0,1-4.47-1.41q-1.83-1.41-1.83-4.62a6.25,6.25,0,0,1,2.14-5.12,8.93,8.93,0,0,1,5.84-1.76h4.71a.16.16,0,0,0,.18-.18v-2.47a6.68,6.68,0,0,0-1.34-4.36,5,5,0,0,0-4.08-1.63,6,6,0,0,0-3.57,1,4.17,4.17,0,0,0-1.76,2.79c-.06.33-.22.46-.49.4l-.48-.09c-.3-.06-.43-.2-.4-.44a5.25,5.25,0,0,1,2.23-3.59,7.57,7.57,0,0,1,4.56-1.34A6.19,6.19,0,0,1,409.13,458.51Zm-1.54,18.18a4.8,4.8,0,0,0,1.89-4.1v-4.8a.16.16,0,0,0-.18-.18h-4.67a7.61,7.61,0,0,0-4.87,1.45,5,5,0,0,0-1.83,4.19,4.51,4.51,0,0,0,1.41,3.66,5.58,5.58,0,0,0,3.71,1.19A7.41,7.41,0,0,0,407.59,476.69Z" transform="translate(-247.7 -448.13)"/><path class="cls-1" d="M420.94,478.54v-30a.39.39,0,0,1,.44-.44h.44a.38.38,0,0,1,.44.44v19.66c0,.06,0,.09.09.11a.11.11,0,0,0,.13-.07L432.36,457a.68.68,0,0,1,.53-.26h.57q.27,0,.33.15c0,.11,0,.23-.11.38l-5,5.78a.22.22,0,0,0-.05.22l6,15.2,0,.18c0,.23-.13.35-.4.35h-.53a.49.49,0,0,1-.48-.35l-5.47-14.28a.18.18,0,0,0-.13-.11.1.1,0,0,0-.13.06l-5.16,5.95a.93.93,0,0,0-.09.22v8.07a.39.39,0,0,1-.44.44h-.44A.39.39,0,0,1,420.94,478.54Z" transform="translate(-247.7 -448.13)"/><path class="cls-1" d="M456.47,478.54v-30a.38.38,0,0,1,.44-.44h.44a.39.39,0,0,1,.44.44v30a.39.39,0,0,1-.44.44h-.44A.39.39,0,0,1,456.47,478.54Z" transform="translate(-247.7 -448.13)"/><path class="cls-1" d="M349.05,463.52v-6.37a.39.39,0,0,0-.44-.44h-.44a.39.39,0,0,0-.44.44v6.37Z" transform="translate(-247.7 -448.13)"/><path class="cls-1" d="M347.73,465.57v6.36a6.36,6.36,0,0,1-1.52,4.47,5.33,5.33,0,0,1-4.12,1.66,5.12,5.12,0,0,1-3.92-1.55,6.06,6.06,0,0,1-1.46-4.32v-6.62h-1.32v6.89a6.82,6.82,0,0,0,1.79,5,6.46,6.46,0,0,0,4.78,1.79,7,7,0,0,0,3.28-.75,5.62,5.62,0,0,0,2.27-2.16c0-.09.07-.12.13-.11a.14.14,0,0,1,.09.15v2.12a.39.39,0,0,0,.44.44h.44a.39.39,0,0,0,.44-.44v-13Z" transform="translate(-247.7 -448.13)"/><path class="cls-1" d="M336.71,463.52v-6.37a.39.39,0,0,0-.44-.44h-.44a.39.39,0,0,0-.44.44v6.37Z" transform="translate(-247.7 -448.13)"/><path class="cls-1" d="M445.09,463.52v-6.4a.39.39,0,0,0-.44-.44h-.44a.39.39,0,0,0-.44.44v6.4Z" transform="translate(-247.7 -448.13)"/><path class="cls-1" d="M443.77,465.57v13a.39.39,0,0,0,.44.44h.44a.39.39,0,0,0,.44-.44v-13Z" transform="translate(-247.7 -448.13)"/></svg>