<svg width="350px" height="50px" id="Layer_1" data-name="Layer 1" xmlns="http://www.w3.org/2000/svg" viewBox="0 0 350 50.69"><defs>
<style>.cls-1{fill:#595a5c;}</style></defs><path class="cls-1" d="M19.1,50H-.25V-.16H19.1Z" transform="translate(0.25 0.16)"/>
<path class="cls-1" d="M44.7,18.71V50H25.34V-.16h0A19.12,19.12,0,0,1,44.7,18.71Z" transform="translate(0.25 0.16)"/><path class="cls-1" d="M70.5,18.71V50H51.15V-.16h0A19.12,19.12,0,0,1,70.5,18.71Z" transform="translate(0.25 0.16)"/><path class="cls-1" d="M126.16,16.7A12,12,0,0,1,129,25.12V49.24a.64.64,0,0,1-.73.72h-.74a.64.64,0,0,1-.73-.72V25.4a10.31,10.31,0,0,0-2.39-7.16,8,8,0,0,0-6.2-2.65,8.56,8.56,0,0,0-6.54,2.58,10,10,0,0,0-2.42,7.09v24a.64.64,0,0,1-.73.72h-.74a.64.64,0,0,1-.73-.72V25.4a10.43,10.43,0,0,0-2.35-7.16,7.89,7.89,0,0,0-6.17-2.65,8.64,8.64,0,0,0-6.61,2.58,9.92,9.92,0,0,0-2.42,7.09v24a.65.65,0,0,1-.74.72h-.73a.65.65,0,0,1-.74-.72V14.37a.65.65,0,0,1,.74-.72h.73a.65.65,0,0,1,.74.72v3.87c0,.15,0,.23.11.25s.16,0,.25-.1a9.24,9.24,0,0,1,3.71-3.58A11.32,11.32,0,0,1,99,13.59a10,10,0,0,1,5.8,1.65,9.67,9.67,0,0,1,3.6,4.65q.08.21.15.21s.09-.07.14-.21a9.52,9.52,0,0,1,3.86-4.69,11.44,11.44,0,0,1,6.13-1.61A9.72,9.72,0,0,1,126.16,16.7Z" transform="translate(0.25 0.16)"/><path class="cls-1" d="M187.87,47.7a7.84,7.84,0,0,1-3.12-6.33v-.72a.65.65,0,0,1,.74-.72h.66a.64.64,0,0,1,.73.72v.65a6.3,6.3,0,0,0,2.54,5A10.05,10.05,0,0,0,196,48.38a9.38,9.38,0,0,0,6.39-2.11,6.86,6.86,0,0,0,2.42-5.4A5.7,5.7,0,0,0,203.55,37a8.74,8.74,0,0,0-3-2.3q-1.75-.81-5.21-2a44.43,44.43,0,0,1-5.55-2.18,9.79,9.79,0,0,1-3.48-2.86A7.51,7.51,0,0,1,184.9,23a8.22,8.22,0,0,1,3-6.66,13.72,13.72,0,0,1,15.86,0,8.19,8.19,0,0,1,3,6.56v.21a.64.64,0,0,1-.73.72h-.59a.64.64,0,0,1-.73-.72V22.9a6.37,6.37,0,0,0-2.46-5.12,9.86,9.86,0,0,0-6.5-2,9.54,9.54,0,0,0-6.32,2,6.48,6.48,0,0,0-2.35,5.2,5.58,5.58,0,0,0,1.14,3.58,8.52,8.52,0,0,0,2.94,2.32A37.9,37.9,0,0,0,196,30.7c2.49.91,4.44,1.68,5.84,2.33a10.16,10.16,0,0,1,3.63,2.86,7.52,7.52,0,0,1,1.54,4.9,8.61,8.61,0,0,1-3,6.84,11.78,11.78,0,0,1-8,2.61A12.42,12.42,0,0,1,187.87,47.7Z" transform="translate(0.25 0.16)"/><path class="cls-1" d="M233.88,15.74h-7.64c-.2,0-.29.09-.29.28V40.87c0,2.67.53,4.52,1.61,5.54S230.35,48,232.7,48h1.18a.64.64,0,0,1,.73.72v.57a.64.64,0,0,1-.73.72h-1.4q-4.26,0-6.5-1.9t-2.24-7V16c0-.19-.1-.28-.29-.28H219.7A.64.64,0,0,1,219,15v-.5a.64.64,0,0,1,.73-.72h3.75c.19,0,.29-.09.29-.28V5.78a.64.64,0,0,1,.74-.71h.73a.64.64,0,0,1,.74.71v7.74c0,.19.09.28.29.28h7.64a.64.64,0,0,1,.73.72V15A.64.64,0,0,1,233.88,15.74Z" transform="translate(0.25 0.16)"/><path class="cls-1" d="M268.68,16.7q2.79,3.19,2.79,8.7V49.24a.64.64,0,0,1-.73.72H270a.64.64,0,0,1-.73-.72V45.81c0-.15,0-.23-.15-.25s-.17,0-.22.17a10,10,0,0,1-4.4,3.58,15.17,15.17,0,0,1-6.17,1.22,12.06,12.06,0,0,1-7.46-2.29c-2-1.53-3-4-3-7.52s1.18-6.39,3.56-8.3,5.62-2.87,9.73-2.87H269c.2,0,.3-.09.3-.28v-4A10.64,10.64,0,0,0,267,18.17c-1.49-1.77-3.76-2.65-6.79-2.65a10.18,10.18,0,0,0-6,1.68,6.81,6.81,0,0,0-2.94,4.55c-.1.53-.37.74-.81.64l-.8-.14c-.49-.09-.71-.33-.66-.71a8.53,8.53,0,0,1,3.7-5.84,12.9,12.9,0,0,1,7.6-2.18C264.06,13.52,266.82,14.58,268.68,16.7Zm-2.57,29.54a7.71,7.71,0,0,0,3.16-6.66V31.77c0-.19-.1-.28-.3-.28h-7.78a12.84,12.84,0,0,0-8.11,2.36,8.09,8.09,0,0,0-3.05,6.8c0,2.68.78,4.65,2.35,5.94a9.4,9.4,0,0,0,6.17,1.94A12.55,12.55,0,0,0,266.11,46.24Z" transform="translate(0.25 0.16)"/><path class="cls-1" d="M288.36,49.24V.56a.65.65,0,0,1,.74-.72h.73a.64.64,0,0,1,.73.72V32.49c0,.1.05.15.15.18a.18.18,0,0,0,.22-.11l16.45-18.33a1.13,1.13,0,0,1,.89-.43h1c.29,0,.48.08.55.25s0,.37-.18.61L301.28,24a.36.36,0,0,0-.07.36l9.91,24.7.08.29q0,.57-.66.57h-.88a.8.8,0,0,1-.81-.57l-9.11-23.2a.31.31,0,0,0-.22-.18.18.18,0,0,0-.22.11l-8.59,9.66a1.19,1.19,0,0,0-.15.36v13.1a.64.64,0,0,1-.73.72h-.73A.65.65,0,0,1,288.36,49.24Z" transform="translate(0.25 0.16)"/><path class="cls-1" d="M347.54,49.24V.56a.65.65,0,0,1,.74-.72H349a.65.65,0,0,1,.74.72V49.24A.65.65,0,0,1,349,50h-.73A.65.65,0,0,1,347.54,49.24Z" transform="translate(0.25 0.16)"/><path class="cls-1" d="M168.6,24.85V14.5a.64.64,0,0,0-.73-.72h-.74a.64.64,0,0,0-.73.72V24.85Z" transform="translate(0.25 0.16)"/><path class="cls-1" d="M166.4,28.17V38.5a10.16,10.16,0,0,1-2.54,7.27A9,9,0,0,1,157,48.46,8.69,8.69,0,0,1,150.46,46a9.7,9.7,0,0,1-2.42-7V28.17h-2.2V39.36q0,5.31,3,8.2a10.94,10.94,0,0,0,8,2.9,11.91,11.91,0,0,0,5.47-1.22A9.26,9.26,0,0,0,166,45.73c.05-.14.12-.2.22-.17s.15.1.15.25v3.43a.64.64,0,0,0,.73.72h.74a.64.64,0,0,0,.73-.72V28.17Z" transform="translate(0.25 0.16)"/><path class="cls-1" d="M148,24.85V14.5a.64.64,0,0,0-.73-.72h-.74a.64.64,0,0,0-.73.72V24.85Z" transform="translate(0.25 0.16)"/><path class="cls-1" d="M328.6,24.85V14.45a.64.64,0,0,0-.73-.72h-.74a.64.64,0,0,0-.73.72v10.4Z" transform="translate(0.25 0.16)"/><path class="cls-1" d="M326.4,28.17V49.24a.64.64,0,0,0,.73.72h.74a.64.64,0,0,0,.73-.72V28.17Z" transform="translate(0.25 0.16)"/></svg>
